# Blender 4.0.2
# www.blender.org
mtllib target.mtl
o target
v 0.000000 -0.025000 -0.601831
v 0.000000 -0.017109 -0.610000
v 0.000000 0.025000 -0.601831
v 0.000000 0.017109 -0.610000
v 0.300915 -0.025000 -0.521201
v 0.305000 -0.017109 -0.528275
v 0.300915 0.025000 -0.521201
v 0.305000 0.017109 -0.528275
v 0.521201 -0.025000 -0.300915
v 0.528275 -0.017109 -0.305000
v 0.521201 0.025000 -0.300915
v 0.528275 0.017109 -0.305000
v 0.601831 -0.025000 0.000000
v 0.610000 -0.017109 0.000000
v 0.601831 0.025000 0.000000
v 0.610000 0.017109 0.000000
v 0.521201 -0.025000 0.300915
v 0.528275 -0.017109 0.305000
v 0.521201 0.025000 0.300915
v 0.528275 0.017109 0.305000
v 0.300915 -0.025000 0.521201
v 0.305000 -0.017109 0.528275
v 0.300915 0.025000 0.521201
v 0.305000 0.017109 0.528275
v 0.000000 -0.025000 0.601831
v 0.000000 -0.017109 0.610000
v 0.000000 0.025000 0.601831
v 0.000000 0.017109 0.610000
v -0.300915 -0.025000 0.521201
v -0.305000 -0.017109 0.528275
v -0.300915 0.025000 0.521201
v -0.305000 0.017109 0.528275
v -0.521201 -0.025000 0.300915
v -0.528275 -0.017109 0.305000
v -0.521201 0.025000 0.300915
v -0.528275 0.017109 0.305000
v -0.601831 -0.025000 0.000000
v -0.610000 -0.017109 0.000000
v -0.601831 0.025000 0.000000
v -0.610000 0.017109 0.000000
v -0.521201 -0.025000 -0.300915
v -0.528275 -0.017109 -0.305000
v -0.521201 0.025000 -0.300915
v -0.528275 0.017109 -0.305000
v -0.300915 -0.025000 -0.521201
v -0.305000 -0.017109 -0.528275
v -0.300915 0.025000 -0.521201
v -0.305000 0.017109 -0.528275
vn -0.2588 -0.0000 -0.9659
vn 0.9659 -0.0000 -0.2588
vn 0.9659 -0.0000 0.2588
vn 0.7071 -0.0000 0.7071
vn 0.2588 -0.0000 0.9659
vn -0.2588 -0.0000 0.9659
vn -0.7071 -0.0000 0.7071
vn -0.9659 -0.0000 0.2588
vn -0.9659 -0.0000 -0.2588
vn -0.7071 -0.0000 -0.7071
vn 0.7071 -0.0000 -0.7071
vn -0.0000 1.0000 -0.0000
vn 0.2588 -0.0000 -0.9659
vn 0.1830 -0.7071 -0.6830
vn 0.1830 0.7071 -0.6830
vn 0.5000 -0.7071 -0.5000
vn 0.5000 0.7071 -0.5000
vn 0.6830 -0.7071 -0.1830
vn 0.6830 0.7071 -0.1830
vn 0.6830 -0.7071 0.1830
vn 0.6830 0.7071 0.1830
vn 0.5000 -0.7071 0.5000
vn 0.5000 0.7071 0.5000
vn 0.1830 -0.7071 0.6830
vn 0.1830 0.7071 0.6830
vn -0.1830 -0.7071 0.6830
vn -0.1830 0.7071 0.6830
vn -0.5000 -0.7071 0.5000
vn -0.5000 0.7071 0.5000
vn -0.6830 -0.7071 0.1830
vn -0.6830 0.7071 0.1830
vn -0.6830 -0.7071 -0.1830
vn -0.6830 0.7071 -0.1830
vn -0.5000 -0.7071 -0.5000
vn -0.5000 0.7071 -0.5000
vn -0.1830 -0.7071 -0.6830
vn -0.1830 0.7071 -0.6830
vn -0.0000 -1.0000 -0.0000
vt 0.330350 0.999979
vt 0.354664 0.598055
vt 0.354664 0.999979
vt 0.873508 1.000022
vt 0.897823 0.598098
vt 0.897822 1.000022
vt 0.432444 0.598087
vt 0.408130 1.000011
vt 0.408130 0.598087
vt 0.746086 0.598028
vt 0.718642 0.999952
vt 0.718642 0.598028
vt 0.510518 0.598055
vt 0.486204 0.999979
vt 0.486204 0.598055
vt 0.564597 0.999978
vt 0.588911 0.598054
vt 0.588911 0.999978
vt 0.198352 0.598041
vt 0.174038 0.999965
vt 0.174038 0.598041
vt 0.950683 0.999757
vt 0.974997 0.597833
vt 0.974997 0.999757
vt 0.120178 0.597973
vt 0.095864 0.999897
vt 0.095864 0.597973
vt 0.796872 0.999872
vt 0.820277 0.598019
vt 0.820277 0.999942
vt 0.252081 0.999979
vt 0.276395 0.598055
vt 0.276395 0.999979
vt 0.531388 0.378621
vt 0.747917 -0.003634
vt 0.970695 0.375013
vt 0.643991 0.999992
vt 0.667063 0.598068
vt 0.667063 0.999992
vt 0.691377 0.999992
vt 0.618435 0.598068
vt 0.643991 0.598068
vt 0.300709 0.999979
vt 0.227767 0.598055
vt 0.252081 0.598055
vt 0.922137 1.000022
vt 0.849195 0.598098
vt 0.873509 0.598098
vt 0.383816 0.598087
vt 0.456758 1.000010
vt 0.432444 1.000010
vt 0.696508 0.598028
vt 0.769450 0.999952
vt 0.746086 0.999952
vt 0.461890 0.598055
vt 0.534832 0.999979
vt 0.510518 0.999979
vt 0.613225 0.999978
vt 0.540283 0.598054
vt 0.564597 0.598054
vt 0.149724 0.598041
vt 0.222666 0.999965
vt 0.198352 0.999965
vt 0.999311 0.999757
vt 0.926369 0.597833
vt 0.950683 0.597833
vt 0.071550 0.597973
vt 0.144492 0.999897
vt 0.120178 0.999897
vt 0.843629 0.999942
vt 0.773132 0.597907
vt 0.796872 0.597948
vt 0.378978 0.999979
vt 0.306036 0.598055
vt 0.330350 0.598055
vt -0.003630 0.252549
vt 0.374607 0.029076
vt 0.379023 0.468375
vt 0.878621 0.468612
vt 0.752083 0.503634
vt 0.624987 0.470695
vt 0.496366 0.252083
vt 0.529305 0.124987
vt 0.621379 0.031388
vt 0.875013 0.029305
vt 0.968612 0.121379
vt 1.003634 0.247917
vt 0.691377 0.598068
vt 0.618435 0.999992
vt 0.300709 0.598055
vt 0.227767 0.999979
vt 0.922137 0.598098
vt 0.849194 1.000022
vt 0.383816 1.000011
vt 0.456758 0.598087
vt 0.696508 0.999952
vt 0.769450 0.598028
vt 0.461890 0.999979
vt 0.534832 0.598055
vt 0.613225 0.598054
vt 0.540283 0.999978
vt 0.149724 0.999965
vt 0.222666 0.598041
vt 0.999311 0.597833
vt 0.926369 0.999757
vt 0.071550 0.999897
vt 0.144492 0.597973
vt 0.843629 0.598019
vt 0.773132 0.999831
vt 0.378978 0.598055
vt 0.306036 0.999979
vt 0.252549 0.503630
vt 0.125393 0.470924
vt 0.031625 0.379023
vt 0.029076 0.125393
vt 0.120978 0.031625
vt 0.247451 -0.003630
vt 0.468375 0.120978
vt 0.503630 0.247451
vt 0.470924 0.374607
s 0
usemtl target
f 48/1/1 2/2/1 46/3/1
f 12/4/2 14/5/2 10/6/2
f 16/7/3 18/8/3 14/9/3
f 20/10/4 22/11/4 18/12/4
f 24/13/5 26/14/5 22/15/5
f 28/16/6 30/17/6 26/18/6
f 32/19/7 34/20/7 30/21/7
f 36/22/8 38/23/8 34/24/8
f 40/25/9 42/26/9 38/27/9
f 44/28/10 46/29/10 42/30/10
f 8/31/11 10/32/11 6/33/11
f 43/34/12 27/35/12 11/36/12
f 4/37/13 6/38/13 2/39/13
f 6/38/14 1/40/14 2/39/14
f 4/37/15 7/41/15 8/42/15
f 10/32/16 5/43/16 6/33/16
f 8/31/17 11/44/17 12/45/17
f 14/5/18 9/46/18 10/6/18
f 12/4/19 15/47/19 16/48/19
f 18/8/20 13/49/20 14/9/20
f 16/7/21 19/50/21 20/51/21
f 22/11/22 17/52/22 18/12/22
f 20/10/23 23/53/23 24/54/23
f 26/14/24 21/55/24 22/15/24
f 24/13/25 27/56/25 28/57/25
f 30/17/26 25/58/26 26/18/26
f 28/16/27 31/59/27 32/60/27
f 34/20/28 29/61/28 30/21/28
f 32/19/29 35/62/29 36/63/29
f 38/23/30 33/64/30 34/24/30
f 36/22/31 39/65/31 40/66/31
f 42/26/32 37/67/32 38/27/32
f 40/25/33 43/68/33 44/69/33
f 46/29/34 41/70/34 42/30/34
f 44/28/35 47/71/35 48/72/35
f 2/2/36 45/73/36 46/3/36
f 48/1/37 3/74/37 4/75/37
f 13/76/38 29/77/38 45/78/38
f 48/1/1 4/75/1 2/2/1
f 12/4/2 16/48/2 14/5/2
f 16/7/3 20/51/3 18/8/3
f 20/10/4 24/54/4 22/11/4
f 24/13/5 28/57/5 26/14/5
f 28/16/6 32/60/6 30/17/6
f 32/19/7 36/63/7 34/20/7
f 36/22/8 40/66/8 38/23/8
f 40/25/9 44/69/9 42/26/9
f 44/28/10 48/72/10 46/29/10
f 8/31/11 12/45/11 10/32/11
f 11/36/12 7/79/12 3/80/12
f 3/80/12 47/81/12 43/34/12
f 43/34/12 39/82/12 35/83/12
f 35/83/12 31/84/12 27/35/12
f 27/35/12 23/85/12 19/86/12
f 19/86/12 15/87/12 11/36/12
f 11/36/12 3/80/12 43/34/12
f 43/34/12 35/83/12 27/35/12
f 27/35/12 19/86/12 11/36/12
f 4/37/13 8/42/13 6/38/13
f 6/38/14 5/88/14 1/40/14
f 4/37/15 3/89/15 7/41/15
f 10/32/16 9/90/16 5/43/16
f 8/31/17 7/91/17 11/44/17
f 14/5/18 13/92/18 9/46/18
f 12/4/19 11/93/19 15/47/19
f 18/8/20 17/94/20 13/49/20
f 16/7/21 15/95/21 19/50/21
f 22/11/22 21/96/22 17/52/22
f 20/10/23 19/97/23 23/53/23
f 26/14/24 25/98/24 21/55/24
f 24/13/25 23/99/25 27/56/25
f 30/17/26 29/100/26 25/58/26
f 28/16/27 27/101/27 31/59/27
f 34/20/28 33/102/28 29/61/28
f 32/19/29 31/103/29 35/62/29
f 38/23/30 37/104/30 33/64/30
f 36/22/31 35/105/31 39/65/31
f 42/26/32 41/106/32 37/67/32
f 40/25/33 39/107/33 43/68/33
f 46/29/34 45/108/34 41/70/34
f 44/28/35 43/109/35 47/71/35
f 2/2/36 1/110/36 45/73/36
f 48/1/37 47/111/37 3/74/37
f 45/78/38 1/112/38 5/113/38
f 5/113/38 9/114/38 13/76/38
f 13/76/38 17/115/38 21/116/38
f 21/116/38 25/117/38 29/77/38
f 29/77/38 33/118/38 37/119/38
f 37/119/38 41/120/38 45/78/38
f 45/78/38 5/113/38 13/76/38
f 13/76/38 21/116/38 29/77/38
f 29/77/38 37/119/38 45/78/38
